<svg xmlns="http://www.w3.org/2000/svg" xmlns:xlink="http://www.w3.org/1999/xlink" width="29.502" height="31.349" viewBox="0 0 29.502 31.349">
  <defs>
    <clipPath id="clip-path">
      <rect id="사각형_58227" data-name="사각형 58227" width="29.502" height="31.349" fill="none" stroke="#9a9a9a" stroke-width="1.3"/>
    </clipPath>
  </defs>
  <g id="그룹_171692" data-name="그룹 171692" clip-path="url(#clip-path)">
    <path id="패스_44377" data-name="패스 44377" d="M1.893,20.023a1.922,1.922,0,0,1-1.645-.916,1.734,1.734,0,0,1,.318-2.176l1.719-1.561V9.057C2.285,4.232,6.311,0,10.9,0s8.617,4.232,8.617,9.057v6.314l1.719,1.561a1.734,1.734,0,0,1,.318,2.176,1.922,1.922,0,0,1-1.645.916Z" transform="translate(4.812 2.888)" fill="none" stroke="#9a9a9a" stroke-width="1.5"/>
    <path id="패스_45135" data-name="패스 45135" d="M8.529,18.882s.9,3.366,3.892,3.366,3.847-3.366,3.847-3.366" transform="translate(3.315 5.795)" fill="none" stroke="#9a9a9a" stroke-width="1.5"/>
  </g>
</svg>
