<svg xmlns="http://www.w3.org/2000/svg" width="11.936" height="11.936" viewBox="0 0 11.936 11.936">
  <path id="패스_45152" data-name="패스 45152" d="M11.673,5.032c-.342-.1-.681-.211-1.021-.315a.365.365,0,0,1-.238-.222,5.3,5.3,0,0,0-.3-.641A.369.369,0,0,1,10.1,3.5c.167-.328.331-.66.5-.988a.362.362,0,0,0-.071-.427L9.78,1.338a.373.373,0,0,0-.44-.065q-.575.308-1.155.613a.352.352,0,0,1-.317.016c-.131-.055-.265-.107-.4-.148a.367.367,0,0,1-.243-.235c-.14-.424-.282-.843-.419-1.264A.368.368,0,0,0,6.452,0H5.391a.365.365,0,0,0-.358.263c-.129.424-.26.845-.386,1.269a.367.367,0,0,1-.238.244,3.482,3.482,0,0,0-.336.126.351.351,0,0,1-.318-.016c-.386-.2-.769-.408-1.155-.613a.361.361,0,0,0-.438.065c-.252.249-.5.5-.75.753a.361.361,0,0,0-.071.427l.5.988a.348.348,0,0,1-.014.35,4.883,4.883,0,0,0-.3.641.365.365,0,0,1-.238.222L.265,5.032A.365.365,0,0,0,0,5.385V6.446A.373.373,0,0,0,.257,6.8c.336.11.67.222,1.007.337a.367.367,0,0,1,.235.227,4.132,4.132,0,0,0,.29.646.359.359,0,0,1,0,.356c-.172.323-.345.646-.517.972a.371.371,0,0,0,.068.435c.252.252.5.5.75.753a.37.37,0,0,0,.43.071c.389-.2.78-.391,1.166-.585A.364.364,0,0,1,4,10c.134.055.268.109.408.156a.36.36,0,0,1,.238.244c.126.418.257.843.386,1.267a.365.365,0,0,0,.358.265H6.452a.367.367,0,0,0,.353-.258c.137-.418.279-.843.419-1.261a.351.351,0,0,1,.243-.235c.159-.052.315-.115.471-.178a.363.363,0,0,1,.315.008l1.166.585a.37.37,0,0,0,.43-.071c.252-.249.5-.5.75-.753a.37.37,0,0,0,.068-.435c-.172-.325-.345-.648-.517-.972a.358.358,0,0,1,0-.356,4.168,4.168,0,0,0,.29-.646.366.366,0,0,1,.235-.227c.334-.115.67-.227,1.007-.337a.37.37,0,0,0,.254-.356V5.385a.363.363,0,0,0-.263-.353M5.968,8.991A3.023,3.023,0,1,1,8.991,5.968,3.023,3.023,0,0,1,5.968,8.991" fill="#727277"/>
</svg>
