<svg xmlns="http://www.w3.org/2000/svg" width="14.922" height="17.173" viewBox="0 0 14.922 17.173">
  <path id="패스_149" data-name="패스 149" d="M947.174,1249.055a2.819,2.819,0,0,0-1.993-2.734.237.237,0,0,1-.18-.205,5.392,5.392,0,0,0-6.945-3.975,5.33,5.33,0,0,0-3.605,3.978.24.24,0,0,1-.18.2,2.819,2.819,0,0,0-2,2.747q-.014,3.549,0,7.1a2.853,2.853,0,0,0,2.9,2.871c1.512-.025,3.025-.006,4.538-.006,1.533,0,3.065,0,4.6,0a2.889,2.889,0,0,0,.639-.063,2.814,2.814,0,0,0,2.23-2.791Q947.192,1252.615,947.174,1249.055Zm-7.321-5.627c1.682.063,3.47,1.472,3.537,2.753h-7.332A3.776,3.776,0,0,1,939.853,1243.428Zm5.763,12.724a1.271,1.271,0,0,1-1.327,1.337q-4.568.006-9.137,0a1.272,1.272,0,0,1-1.328-1.335q0-3.541,0-7.08a1.28,1.28,0,0,1,1.346-1.339q2.279,0,4.558,0t4.559,0a1.283,1.283,0,0,1,1.3,1.017,1.468,1.468,0,0,1,.027.319Q945.619,1252.612,945.616,1256.152Z" transform="translate(-932.26 -1241.865)" fill="#1F2531" opacity="0.3"/>
</svg>
