<svg
  xmlns="http://www.w3.org/2000/svg"
  width="17.048"
  height="18.207"
  viewBox="0 0 17.048 18.207"
>
  <path
    id="패스_148"
    data-name="패스 148"
    d="M1534.911,1254.822a6.178,6.178,0,1,1,9.381-.01c.335.267.686.519,1,.8a8.257,8.257,0,0,1,2.744,5.249c.041.328.067.658.076.988a.889.889,0,0,1-.877.977.9.9,0,0,1-.9-.956,6.587,6.587,0,0,0-3.272-5.712.37.37,0,0,0-.432-.009,6.068,6.068,0,0,1-6.089-.005.338.338,0,0,0-.392,0,6.575,6.575,0,0,0-3.257,5.031c-.029.236-.036.475-.044.713a.9.9,0,0,1-.894.943.889.889,0,0,1-.888-.969,8.389,8.389,0,0,1,3.682-6.924Zm9.074-4.023a4.393,4.393,0,1,0-4.4,4.393A4.392,4.392,0,0,0,1543.985,1250.8Z"
    transform="translate(-1531.067 -1244.624)"
    fill="#6226BE"
  />
</svg>
